<mxfile host="Electron" modified="2024-05-19T16:03:18.995Z" agent="Mozilla/5.0 (Windows NT 10.0; Win64; x64) AppleWebKit/537.36 (KHTML, like Gecko) draw.io/24.4.0 Chrome/120.0.6099.109 Electron/28.1.0 Safari/537.36" etag="F7OPjSKXPL1lRtTyzcIb" version="24.4.0" type="device">
  <diagram name="Page-1" id="JbzzVTaa0u5cS2BRgFt1">
    <mxGraphModel dx="915" dy="683" grid="1" gridSize="10" guides="1" tooltips="1" connect="1" arrows="1" fold="1" page="1" pageScale="1" pageWidth="850" pageHeight="1100" math="0" shadow="0">
      <root>
        <mxCell id="0" />
        <mxCell id="1" parent="0" />
        <mxCell id="bKIFsk5Z3OFBb6fWsvYr-4" value="&lt;font style=&quot;font-size: 20px;&quot;&gt;Player&lt;/font&gt;" style="swimlane;whiteSpace=wrap;html=1;startSize=30;" parent="1" vertex="1">
          <mxGeometry x="170" y="560" width="270" height="540" as="geometry" />
        </mxCell>
        <mxCell id="bKIFsk5Z3OFBb6fWsvYr-7" value="" style="ellipse;html=1;shape=startState;fillColor=#000000;strokeColor=#ff0000;" parent="bKIFsk5Z3OFBb6fWsvYr-4" vertex="1">
          <mxGeometry x="120" y="40" width="30" height="30" as="geometry" />
        </mxCell>
        <mxCell id="bKIFsk5Z3OFBb6fWsvYr-8" value="" style="edgeStyle=orthogonalEdgeStyle;html=1;verticalAlign=bottom;endArrow=open;endSize=8;strokeColor=#ff0000;rounded=0;" parent="bKIFsk5Z3OFBb6fWsvYr-4" source="bKIFsk5Z3OFBb6fWsvYr-7" edge="1">
          <mxGeometry relative="1" as="geometry">
            <mxPoint x="135" y="130" as="targetPoint" />
          </mxGeometry>
        </mxCell>
        <mxCell id="bKIFsk5Z3OFBb6fWsvYr-9" value="&lt;font style=&quot;font-size: 16px;&quot;&gt;Player nhấn vào nút start&lt;/font&gt;" style="rounded=1;whiteSpace=wrap;html=1;arcSize=40;fontColor=#000000;fillColor=#ffffc0;strokeColor=#ff0000;" parent="bKIFsk5Z3OFBb6fWsvYr-4" vertex="1">
          <mxGeometry x="75" y="130" width="125" height="70" as="geometry" />
        </mxCell>
        <mxCell id="bKIFsk5Z3OFBb6fWsvYr-10" value="" style="edgeStyle=orthogonalEdgeStyle;html=1;verticalAlign=bottom;endArrow=open;endSize=8;strokeColor=#ff0000;rounded=0;" parent="bKIFsk5Z3OFBb6fWsvYr-4" source="bKIFsk5Z3OFBb6fWsvYr-9" edge="1">
          <mxGeometry relative="1" as="geometry">
            <mxPoint x="350" y="165" as="targetPoint" />
          </mxGeometry>
        </mxCell>
        <mxCell id="bKIFsk5Z3OFBb6fWsvYr-5" value="&lt;font style=&quot;font-size: 20px;&quot;&gt;System&lt;/font&gt;" style="swimlane;whiteSpace=wrap;html=1;startSize=30;" parent="1" vertex="1">
          <mxGeometry x="440" y="560" width="340" height="540" as="geometry" />
        </mxCell>
        <mxCell id="OxmKGtmnOzXyArNsm9Wc-1" value="&lt;font style=&quot;font-size: 16px;&quot;&gt;Chuyển sang màn chơi&lt;/font&gt;" style="rounded=1;whiteSpace=wrap;html=1;arcSize=40;fontColor=#000000;fillColor=#ffffc0;strokeColor=#ff0000;" parent="bKIFsk5Z3OFBb6fWsvYr-5" vertex="1">
          <mxGeometry x="80" y="140" width="180" height="50" as="geometry" />
        </mxCell>
        <mxCell id="OxmKGtmnOzXyArNsm9Wc-2" value="" style="edgeStyle=orthogonalEdgeStyle;html=1;verticalAlign=bottom;endArrow=open;endSize=8;strokeColor=#ff0000;rounded=0;" parent="bKIFsk5Z3OFBb6fWsvYr-5" source="OxmKGtmnOzXyArNsm9Wc-1" edge="1">
          <mxGeometry relative="1" as="geometry">
            <mxPoint x="170" y="300" as="targetPoint" />
          </mxGeometry>
        </mxCell>
        <mxCell id="OxmKGtmnOzXyArNsm9Wc-3" value="&lt;font style=&quot;font-size: 16px;&quot;&gt;Khởi tạo các đối tượng&lt;/font&gt;" style="rounded=1;whiteSpace=wrap;html=1;arcSize=40;fontColor=#000000;fillColor=#ffffc0;strokeColor=#ff0000;" parent="bKIFsk5Z3OFBb6fWsvYr-5" vertex="1">
          <mxGeometry x="80" y="300" width="180" height="60" as="geometry" />
        </mxCell>
        <mxCell id="OxmKGtmnOzXyArNsm9Wc-4" value="" style="edgeStyle=orthogonalEdgeStyle;html=1;verticalAlign=bottom;endArrow=open;endSize=8;strokeColor=#ff0000;rounded=0;" parent="bKIFsk5Z3OFBb6fWsvYr-5" source="OxmKGtmnOzXyArNsm9Wc-3" edge="1">
          <mxGeometry relative="1" as="geometry">
            <mxPoint x="170" y="480" as="targetPoint" />
          </mxGeometry>
        </mxCell>
        <mxCell id="OxmKGtmnOzXyArNsm9Wc-5" value="" style="ellipse;html=1;shape=endState;fillColor=#000000;strokeColor=#ff0000;" parent="bKIFsk5Z3OFBb6fWsvYr-5" vertex="1">
          <mxGeometry x="155" y="480" width="30" height="30" as="geometry" />
        </mxCell>
      </root>
    </mxGraphModel>
  </diagram>
</mxfile>
